#!OML:ASF F:\VICON\USERDATA\INSTALL\rory3\rory3.ASF
:FULLY-SPECIFIED
:DEGREES
81
root 0.11528890098586814 17.90163083081523 34.48348467631248 -1.7586369476396804 -4.2954072621113415 -7.265971972279345
lfemur -24.27645094956364 -0.3819873241338456 -11.01224889173395
ltibia 40.64071356120525
lfoot -6.502889880943345 5.319538139888727
ltoes -4.156266751957284
rfemur -0.4052988929985286 6.145826145314962 34.91987943988212
rtibia 27.3434013000383
rfoot -18.60889943881714 -6.757093955795246
rtoes 7.652721750800275
lowerback 9.724801355799869 2.066819587028754 6.739622836454445
upperback 0.5641667867139724 3.587370720018144 2.3025616719937307
thorax -4.726254641996333 1.6555731637509814 -1.5670467800346395
lowerneck -16.4817524544839 -2.796265616425863 -1.9205440266410554
upperneck 20.15326415182159 -3.6083466445591537 1.2297850390238805
head 9.085725009978528 -1.7247724004723177 0.29152017681470366
lclavicle -1.3392390622681388e-15 1.4712242095619944e-15
lhumerus -32.389262700668745 3.2077214218163164 83.64486234178673
lradius 24.40367447616173
lwrist 4.833757992374876
lhand -28.324436385889097 21.633198018896493
lfingers 7.12502
lthumb -1.6991979314611043 51.59792372690126
rclavicle -1.3392390622681388e-15 1.471224209561994e-15
rhumerus -24.986282401605045 -10.57427460140925 -81.85174456980083
rradius 27.675561715757915
rwrist 2.465658492033691
rhand -17.86046863873975 23.274388545442335
rfingers 7.12502
rthumb 8.40492678542178 -6.542990240417723
82
root 0.13976990517293358 17.83093354605688 34.369115948144454 -1.2323820247200483 -4.959952247094274 -7.716613890456292
lfemur -24.48914526096843 -2.433167296893872 -9.939468826637443
ltibia 29.791837165849866
lfoot -6.317170456083837 7.293297151658572
ltoes -3.888865019092257
rfemur 1.6885644854649762 6.218146360908431 35.13112170063389
rtibia 25.714113733167338
rfoot -19.813551947172435 -7.0594704638368375
rtoes 6.085710959096854
lowerback 9.471141921086152 2.3143253081483732 7.102500974897766
upperback 0.49437513766567365 3.9360829955549703 2.269012628615785
thorax -4.639462377835165 1.8234475824001608 -1.913346846636082
lowerneck -16.67329865627286 -2.805913669677173 -1.855729352005242
upperneck 19.968755621237417 -3.6319123637905317 1.227874813999228
head 9.0438727303577 -1.7305094002486032 0.2754337115982394
lclavicle -1.7281062255986905e-15 1.113159419185532e-15
lhumerus -33.34016038361499 4.584572724203574 83.04329804826244
lradius 23.09501458341443
lwrist 4.105601629149429
lhand -28.3334470894959 21.96564082489602
lfingers 7.12502
lthumb -1.7078864182911704 51.92932389934484
rclavicle -1.7281062255986905e-15 1.113159419185532e-15
rhumerus -24.178983980808876 -9.932288721410924 -81.99987850945469
rradius 28.250874333059652
rwrist 1.8257190410100446
rhand -17.976207111710792 23.80369646211295
rfingers 7.12502
rthumb 8.293219782100945 -6.017873867765926
83
root 0.17528620152837043 17.760811778394658 34.6672483541056 -0.8096399521795266 -5.473361248146933 -7.87737983238101
lfemur -23.899663279595135 -4.2324833889169975 -9.057570435444891
ltibia 21.039969878121767
lfoot -5.951118918026082 8.448558007127446
ltoes -3.714124177030382
rfemur 4.136313454303647 6.33446914092222 35.20948315267112
rtibia 24.93192969573213
rfoot -20.640705493755963 -6.812774041779826
rtoes 3.8104671353276776
lowerback 9.192850022152173 2.557247734935828 7.309279636455815
upperback 0.4389615267662471 4.253003201626843 2.226401981257002
thorax -4.531579511554881 1.9799437797336832 -2.0868577770503474
lowerneck -16.797375815578835 -2.8273480870208383 -1.791323827547244
upperneck 19.882948782640273 -3.6756979721647696 1.278138804911933
head 9.03157326254346 -1.7437290514961559 0.2729503710348473
lclavicle -1.73502480505351e-15 1.1071506414656572e-15
lhumerus -34.15539222938645 6.211626147786138 82.32303623483658
lradius 21.65196491431497
lwrist 3.1014044681310287
lhand -28.15524910565235 22.61981684614021
lfingers 7.12502
lthumb -1.5357692677679495 52.58442107036124
rclavicle -1.7350248050535099e-15 1.1071506414656572e-15
rhumerus -23.45695569101927 -9.791587820200883 -81.96211565925941
rradius 28.599493449974638
rwrist 1.7157631833978746
rhand -18.03930971283365 24.05221976460868
rfingers 7.12502
rthumb 8.23231164616305 -5.771255411817373
84
root 0.22910756382075936 17.699686393530527 35.364424377846106 -0.611331098672347 -5.745727586890351 -7.670136046628322
lfemur -23.011116847568875 -5.14993285479785 -8.88437278549106
ltibia 16.320630003798783
lfoot -5.331636527520807 8.295358632197502
ltoes -3.3467988463392095
rfemur 6.623878420292126 6.45293944980714 35.00547781613645
rtibia 25.405849963272725
rfoot -20.598595795658806 -5.894623065831062
rtoes 1.0399178975714038
lowerback 8.966716759837926 2.763110714937094 7.313702328335486
upperback 0.40868547985844245 4.498022026566796 2.1426931909557627
thorax -4.434246916544587 2.104504789578886 -2.1073877135402013
lowerneck -16.825079380626352 -2.8594761186947304 -1.7393889893061172
upperneck 19.89908232555436 -3.7342598938150413 1.3514401463109547
head 9.045848548749312 -1.7637128509978226 0.2792662155362546
lclavicle -1.4146833746883665e-15 1.4025947577171692e-15
lhumerus -34.8636255627265 7.884724947157991 81.55086197054472
lradius 20.2617942442263
lwrist 1.919226070187583
lhand -27.838279965507404 23.28289496377391
lfingers 7.12502
lthumb -1.2296327891071703 53.24981912888414
rclavicle -1.4146833746883665e-15 1.4025947577171692e-15
rhumerus -22.949275281769896 -10.032862329545633 -81.81775626840916
rradius 28.813172456298275
rwrist 1.9451521340915008
rhand -18.0775381766711 24.13415267907013
rfingers 7.12502
rthumb 8.19541140149887 -5.690823624193936
85
root 0.2952605593250076 17.65641157438673 36.22271547952884 -0.6902753487410309 -5.793439204752082 -7.216529684485188
lfemur -22.436646593560543 -5.1511819125470435 -9.54863000058657
ltibia 15.8028844503131
lfoot -4.438074218555766 6.732760011490177
ltoes -2.710935271918184
rfemur 8.731763114744574 6.451877138803201 34.47336260042357
rtibia 27.208751452617975
rfoot -19.232219477320214 -4.318894452036204
rtoes -1.6252894574492731
lowerback 8.820422189476421 2.9065023322910366 7.114598635189866
upperback 0.4006030283197313 4.644396447568415 2.0037379880126154
thorax -4.369296853077363 2.1827904277757004 -2.059761702246307
lowerneck -16.75882733790469 -2.9070701214773984 -1.7172062787147424
upperneck 19.996116192511877 -3.813587553721056 1.4315686726944512
head 9.077621844050682 -1.7935247246384867 0.28931065042314597
lclavicle -1.0791776463684448e-15 1.7116745943265733e-15
lhumerus -35.59714010368929 9.381254183278424 80.79304415533795
lradius 19.00633313106105
lwrist 0.6527058133087835
lhand -27.41432567217057 23.64966510165659
lfingers 7.12502
lthumb -0.8201730017031751 53.61957275968207
rclavicle -1.0791776463684452e-15 1.7116745943265733e-15
rhumerus -22.769643669401937 -10.579211219686911 -81.66008805468945
rradius 28.965223847341445
rwrist 2.274015866714659
rhand -18.121408029408528 24.17653207739306
rfingers 7.12502
rthumb 8.153070261574978 -5.650430817688237
86
root 0.361665331351334 17.63299445376713 36.78515453525445 -1.0546296926706524 -5.730892238153218 -6.5997211659948505
lfemur -22.422686624446882 -4.55122649837644 -11.167229624742504
ltibia 18.02061145951629
lfoot -3.649919139002778 4.033830710136685
ltoes -1.7991349019592038
rfemur 9.626123797727445 6.131936272218351 33.29239000226792
rtibia 30.085934630435847
rfoot -15.956517695538924 -2.31856832355364
rtoes -3.5791932224571226
lowerback 8.730914287693057 2.9501048065598168 6.584054062499609
upperback 0.38628589183719714 4.631867471995287 1.77752761812163
thorax -4.358790401242858 2.1866788350665187 -2.018145650508485
lowerneck -16.622182055450356 -2.973450499999282 -1.7450206250599947
upperneck 20.135301937448876 -3.9198212326444057 1.4989854007861827
head 9.112825180379682 -1.8351733064672469 0.2973923206219911
lclavicle -1.219785153204262e-15 1.5816704333526831e-15
lhumerus -36.47702345739607 10.48803776241633 80.05443572029091
lradius 17.86075594363681
lwrist -0.5829010637529324
lhand -26.898277548534686 23.63939859373329
lfingers 7.12502
lthumb -0.3217648417261772 53.612291837591236
rclavicle -1.219785153204262e-15 1.5816704333526828e-15
rhumerus -23.048737388959744 -11.456271420621672 -81.58661380482043
rradius 29.03733522969935
rwrist 2.4963235020675754
rhand -18.179989606467316 24.155979452037837
rfingers 7.12502
rthumb 8.096537830863545 -5.672507709367043
87
root 0.4417924155990787 17.643597625250795 37.94064584475193 -1.5528004117580911 -5.503471143212519 -5.686777498537538
lfemur -21.9134102641298 -3.6965074441891934 -13.02007963789389
ltibia 22.30296895032787
lfoot -2.8081049307440513 1.4010416140444548
ltoes -0.4877300681232075
rfemur 9.66290404737402 5.62161992305532 31.85425626972812
rtibia 35.0264755429358
rfoot -10.044038647138223 -0.014448882374621164
rtoes -3.541831846610821
lowerback 8.738847868918214 2.99097159601206 5.977561908735505
upperback 0.3719004344213427 4.611260819594021 1.5336584576053096
thorax -4.388502388993951 2.186023644503331 -1.8655235320375412
lowerneck -16.41920718958936 -3.0362918991196617 -1.7809893368971306
upperneck 20.32294775943863 -4.0189923788408155 1.5925552637325286
head 9.159918162223546 -1.8746992341170958 0.3179302806125869
lclavicle -9.576960495907649e-16 1.822165151544965e-15
lhumerus -37.13891678775342 11.377647766341482 79.48992195647207
lradius 17.166827931260087
lwrist -1.4288095409716854
lhand -26.25666172650362 23.749808222025948
lfingers 7.12502
lthumb 0.29791709318571846 53.724225267744536
rclavicle -9.576960495907649e-16 1.822165151544965e-15
rhumerus -23.5652904171486 -12.312434049934023 -81.4206357303487
rradius 29.140472856841114
rwrist 2.8514335741773618
rhand -18.16168429068123 24.181053761517507
rfingers 7.12502
rthumb 8.114209769234044 -5.647231244369558
88
root 0.5151342248933554 17.67563411913367 38.71085467990832 -2.1299268859307983 -5.4221995622183305 -4.653619433540351
lfemur -21.167070132189856 -3.0431786723951717 -15.229040297726042
ltibia 26.078676410141483
lfoot -2.841433272051964 -0.5574464557994613
ltoes 0.5874873023323404
rfemur 7.726660531866191 4.832823473660467 29.819301892684205
rtibia 41.37791966480906
rfoot -2.3260092419991008 1.579818220622279
rtoes -1.2917398189831997
lowerback 8.848458031161963 2.9839639387583 5.0843474771392065
upperback 0.3523648104910435 4.504215180150913 1.23603298849048
thorax -4.483936062040688 2.145929364617211 -1.6996214908155078
lowerneck -16.27106847681633 -3.077682362194781 -1.8392502646274511
upperneck 20.480695397800503 -4.084924321707659 1.6449563500001916
head 9.200220900036612 -1.9007321003027648 0.33158859774139937
lclavicle -1.0859201371475674e-15 1.7033474232431058e-15
lhumerus -37.7049734019077 11.605314826422598 79.18995201787976
lradius 16.92032213655417
lwrist -1.5571650426597845
lhand -25.826811540221964 23.889060730088907
lfingers 7.12502
lthumb 0.713075390945733 53.862247915253015
rclavicle -1.0859201371475674e-15 1.7033474232431058e-15
rhumerus -24.36198138893761 -13.241012664243364 -81.33308453772703
rradius 29.100567741792016
rwrist 3.1916307316837593
rhand -18.071238405950304 24.057417465475353
rfingers 7.12502
rthumb 8.201508511914847 -5.766699666900012
